<svg width="374" height="148" viewBox="0 0 374 148" fill="none" xmlns="http://www.w3.org/2000/svg">
<g filter="url(#filter0_d_41_14)">
<rect x="4" width="366" height="140" rx="15" fill="#D9D9D9"/>
<rect x="4" width="366" height="140" rx="15" fill="#A12B2B" fill-opacity="0.95"/>
<rect x="9" y="5" width="356" height="130" rx="10" stroke="black" stroke-width="10"/>
</g>
<path d="M62.5625 50.125C63.0208 50.5417 63.3125 51.1667 63.4375 52C63.5625 52.7917 63.8333 54.0417 64.25 55.75C64.6667 57.4583 64.5833 59.2917 64 61.25C63.6667 62.375 63.4583 63.2917 63.375 64C63.125 65.3333 62.8333 66.4792 62.5 67.4375C62.2083 68.3542 61.9167 69.5 61.625 70.875C61.3333 72.2083 60.9583 73.375 60.5 74.375C60.0417 75.3333 59.6667 76.0417 59.375 76.5C59.125 76.9583 58.8958 77.375 58.6875 77.75C58.1875 78.7083 57.875 79.4375 57.75 79.9375C57.6667 80.4375 57.5208 81 57.3125 81.625C57.1458 82.2083 56.9167 82.7917 56.625 83.375C55.8333 84.7083 54.875 85.2083 53.75 84.875C52.3333 86 51.4167 86.8958 51 87.5625C50.5833 88.1875 50.2083 88.6458 49.875 88.9375C49.5417 89.2292 49.2083 89.4375 48.875 89.5625C48.5833 89.6875 48.2917 89.7917 48 89.875C47.7083 89.9583 47.4167 90.1042 47.125 90.3125C46.8333 90.5208 46.4167 90.6875 45.875 90.8125C45.375 90.9792 44.8542 91 44.3125 90.875C42.9792 90.625 42.2708 89.5417 42.1875 87.625C41.1042 87.2083 40.4167 86.8125 40.125 86.4375C39.4583 85.6875 39.125 84.7292 39.125 83.5625C39.125 82.3542 39.1875 81.3958 39.3125 80.6875C39.4792 79.9375 39.625 79.2292 39.75 78.5625C40.125 76.9375 40.1875 75.6667 39.9375 74.75C39.6875 73.7917 39.6042 72.9167 39.6875 72.125C39.8125 71.2917 39.8333 70.3958 39.75 69.4375C39.7083 68.4375 39.7083 67.5625 39.75 66.8125C39.8333 66.0625 39.8958 65.3542 39.9375 64.6875C40.0208 63.9792 40.0625 63.3333 40.0625 62.75C40.0625 62.1667 39.9375 61.625 39.6875 61.125C39.4375 60.5833 39.2292 60.0417 39.0625 59.5C38.9375 58.9583 38.8333 58.4583 38.75 58C38.625 56.875 38.4167 56.0625 38.125 55.5625C37.875 55.0625 37.7708 54.4792 37.8125 53.8125C37.8542 53.1042 37.7917 52.4167 37.625 51.75C37.5 51.0417 37.4375 50.5 37.4375 50.125C37.4792 49.7083 37.4375 49.2917 37.3125 48.875C37.2292 48.4167 37.2708 48.1458 37.4375 48.0625C37.6875 47.9375 37.9167 47.4167 38.125 46.5C38.3333 45.5833 38.5833 45.0208 38.875 44.8125C39.1667 44.5625 39.4792 44.3542 39.8125 44.1875C40.1458 43.9792 40.5208 43.8333 40.9375 43.75C41.8958 43.625 42.7708 43.7917 43.5625 44.25C44.3958 44.7083 45 44.9167 45.375 44.875C45.7917 44.8333 46.2083 44.7083 46.625 44.5C47.9583 43.9583 49.25 43.6875 50.5 43.6875C51.75 43.6875 52.625 43.7708 53.125 43.9375C53.625 44.0625 54.0208 44.2083 54.3125 44.375C54.6042 44.5 54.875 44.6458 55.125 44.8125C55.4167 44.9375 55.8125 45 56.3125 45C56.8542 45 57.25 45.125 57.5 45.375C57.75 45.625 57.9792 45.9167 58.1875 46.25C58.4375 46.5833 58.7083 46.9167 59 47.25C59.2917 47.5833 59.6667 47.8125 60.125 47.9375C60.625 48.0208 60.9375 48.125 61.0625 48.25C61.2292 48.3333 61.3542 48.4583 61.4375 48.625C61.5208 48.75 61.6042 48.9167 61.6875 49.125C61.8125 49.3333 62.1042 49.6667 62.5625 50.125ZM49.375 59.75C48.9583 60.2083 48.7917 60.9583 48.875 62C48.9583 63 49.1042 64.1458 49.3125 65.4375C49.5208 66.6875 49.6042 67.7292 49.5625 68.5625C49.5208 69.3958 49.4375 70.2083 49.3125 71C49.2292 71.7917 49.125 72.5833 49 73.375C48.9167 74.1667 48.875 74.9583 48.875 75.75C48.875 76.5 48.9792 77.0417 49.1875 77.375C49.3958 77.7083 49.625 77.875 49.875 77.875C50.125 77.8333 50.375 77.6667 50.625 77.375C50.875 77.0417 51.0417 76.5208 51.125 75.8125C51.25 75.0625 51.5208 74.3542 51.9375 73.6875C52.3958 72.9792 52.75 72.2708 53 71.5625C53.25 70.8542 53.3958 70.3333 53.4375 70C53.5208 69.6667 53.5833 69.375 53.625 69.125C53.6667 68.8333 53.6875 68.5417 53.6875 68.25C53.7292 67.9167 53.8542 67.4167 54.0625 66.75C54.2708 66.0833 54.2917 65.5 54.125 65C54 64.4583 53.8958 63.8542 53.8125 63.1875C53.7292 62.5208 53.5833 61.9167 53.375 61.375C53.2083 60.7917 52.7917 60.3958 52.125 60.1875C51.8333 60.1042 51.5625 59.9792 51.3125 59.8125C51.1042 59.6458 50.8958 59.5 50.6875 59.375C50.2292 59.1667 49.7917 59.2917 49.375 59.75ZM71.125 90.75C70.7083 90.875 70.2292 90.8333 69.6875 90.625C69.1875 90.4583 68.8333 90.125 68.625 89.625C68.4167 89.0833 68.2708 88.4792 68.1875 87.8125C68.1458 87.1042 68.1458 86.3542 68.1875 85.5625C68.2292 84.7708 68.25 84 68.25 83.25C68.25 81.5833 67.9792 80.5208 67.4375 80.0625C66.3125 79.2292 65.8542 77.1042 66.0625 73.6875C66.2708 71.7292 66.5 70.1667 66.75 69C67.1667 67.0833 67.3542 65.4583 67.3125 64.125C67.3125 62.7917 67.3542 61.75 67.4375 61C67.5625 60.25 67.6875 59.625 67.8125 59.125C67.9792 58.625 68.1667 58.1042 68.375 57.5625C68.5833 57.0208 68.7708 56.125 68.9375 54.875C69.3542 51.75 69.7292 49.8125 70.0625 49.0625C70.5208 48.0208 71.0625 46.9583 71.6875 45.875C72.3542 44.75 72.8958 44 73.3125 43.625C74.2708 42.9167 75.6458 42.8542 77.4375 43.4375C78.7708 43.8958 80 44.0417 81.125 43.875C82.2917 43.7083 83.1667 43.6458 83.75 43.6875C84.375 43.6875 85.0625 43.9167 85.8125 44.375C86.5625 44.7917 87.1458 45.3125 87.5625 45.9375C87.9792 46.5208 88.2708 47.1667 88.4375 47.875C88.7292 49.0833 88.75 50.625 88.5 52.5C88.25 54.3333 88.1458 55.8333 88.1875 57C88.2708 58.125 88.5208 59.2083 88.9375 60.25C89.3958 61.25 89.6875 62.0625 89.8125 62.6875C89.9792 63.2708 90.1042 63.875 90.1875 64.5C90.3125 65.0833 90.3958 65.7292 90.4375 66.4375C90.5208 67.1042 90.6458 67.875 90.8125 68.75C91.0208 69.625 91.125 70.3333 91.125 70.875C91.1667 71.375 91.1667 71.7917 91.125 72.125C91.0833 72.4583 91.0208 72.7708 90.9375 73.0625C90.8958 73.3125 90.9167 73.7292 91 74.3125C91.125 74.8542 91.125 75.4583 91 76.125C90.9167 76.7917 90.8125 77.4375 90.6875 78.0625C90.2292 79.9792 90.0417 81.3333 90.125 82.125C90.2917 83.5417 90.2917 84.5625 90.125 85.1875C89.9583 85.7708 89.7917 86.25 89.625 86.625C89.5 87 89.3333 87.5208 89.125 88.1875C88.9583 88.8542 88.5833 89.4583 88 90C87.4167 90.5417 86.8542 90.7083 86.3125 90.5C85.8125 90.2917 85.4792 90 85.3125 89.625C85.1875 89.2083 85.0625 88.7917 84.9375 88.375C84.8542 87.9583 84.7292 87.5833 84.5625 87.25C84.4375 86.9167 84.1875 86.7292 83.8125 86.6875C83.1458 86.6042 82.7917 86.2292 82.75 85.5625C82.7083 84.8542 82.7083 84.25 82.75 83.75C82.8333 83.2083 82.8125 82.6667 82.6875 82.125C82.5625 81.5833 82.3542 81.0625 82.0625 80.5625C81.3125 79.2708 80.4375 78.5625 79.4375 78.4375C77.9375 78.2292 76.8958 78.9583 76.3125 80.625C76.1875 81.0417 76.0833 81.6042 76 82.3125C75.9583 82.9792 75.7917 83.5833 75.5 84.125C75.25 84.6667 74.9583 85.125 74.625 85.5C74.3333 85.875 74.0417 86.2292 73.75 86.5625C73.5 86.8542 73.3333 87.2292 73.25 87.6875C72.9167 89.4792 72.2083 90.5 71.125 90.75ZM76.6875 64.5625C75.8542 66.8125 75.75 68.6042 76.375 69.9375C76.7917 70.6875 77.3333 71.0833 78 71.125C79.2083 71.25 79.9167 71.1667 80.125 70.875C80.375 70.5417 80.6458 70.2083 80.9375 69.875C81.2708 69.5 81.3958 68.9583 81.3125 68.25C81.2292 67.5 81.1667 66.8542 81.125 66.3125C81.0833 65.7292 80.875 65.0833 80.5 64.375C80.1667 63.6667 79.9375 62.9167 79.8125 62.125C79.6875 61.2917 79.6042 60.5 79.5625 59.75C79.3958 58.0833 79.0208 57.25 78.4375 57.25C78.0208 57.25 77.75 57.4792 77.625 57.9375C77.5417 58.3542 77.4792 58.9167 77.4375 59.625C77.3958 61.7917 77.1458 63.4375 76.6875 64.5625ZM94.375 44.125C95.3333 44.2083 96.1667 44.25 96.875 44.25C97.625 44.2083 98.7292 44.2083 100.188 44.25C102.604 44.375 104.312 44.2083 105.312 43.75C107.354 42.7083 109 42.5833 110.25 43.375C110.833 43.7083 111.396 43.9167 111.938 44C112.479 44.0833 113.25 43.8333 114.25 43.25C115.333 42.7917 116.229 42.6875 116.938 42.9375C117.646 43.1875 118.167 43.5 118.5 43.875C118.833 44.25 119.042 44.9167 119.125 45.875C119.25 46.7917 119.271 47.7083 119.188 48.625C119.146 49.5417 119.062 50.3958 118.938 51.1875C118.688 53.3125 118.583 54.7083 118.625 55.375C118.708 56.0417 118.792 56.7292 118.875 57.4375C119 58.1458 119.042 58.8333 119 59.5C118.917 61.125 118.25 62.0417 117 62.25C116.083 62.375 115.417 62.1667 115 61.625C114.583 61.0417 114.229 60.4167 113.938 59.75C113.688 59.0417 113.417 58.4167 113.125 57.875C112.875 57.3333 112.5 57.1458 112 57.3125C111.5 57.4375 111.188 57.9792 111.062 58.9375C110.938 59.8542 110.896 60.9583 110.938 62.25C110.979 63.5 111.062 64.8125 111.188 66.1875C111.312 67.5208 111.396 68.6667 111.438 69.625C111.479 70.5417 111.521 71.4792 111.562 72.4375C111.646 73.3958 111.688 74.2917 111.688 75.125C111.688 76.9167 111.438 78.1458 110.938 78.8125C110.688 79.1458 110.562 79.5417 110.562 80C110.562 80.4583 110.604 80.9375 110.688 81.4375C110.812 81.9375 110.938 82.4375 111.062 82.9375C111.188 83.4375 111.25 84.0417 111.25 84.75C111.25 86.4167 110.5 87.5833 109 88.25C108.458 88.5 107.958 88.9167 107.5 89.5C107.042 90.0833 106.688 90.4583 106.438 90.625C106.229 90.8333 105.958 90.8958 105.625 90.8125C105.333 90.7708 105.104 90.625 104.938 90.375C104.812 90.1667 104.688 89.9375 104.562 89.6875C104.312 89.0208 103.958 88.5833 103.5 88.375C102.958 88.25 102.625 87.7917 102.5 87C102.417 86.2083 102.354 85.5208 102.312 84.9375C102.312 84.3125 102.271 83.5625 102.188 82.6875C102.104 81.8125 101.833 81.1042 101.375 80.5625C100.917 80.0208 100.542 79.6875 100.25 79.5625C99.9583 79.3958 99.7708 79.0417 99.6875 78.5C99.6042 77.9167 99.6042 77.3333 99.6875 76.75C99.8125 76.1667 99.9583 75.5208 100.125 74.8125C100.625 72.7708 100.896 70.8542 100.938 69.0625C101.062 65.7292 101.062 63.5208 100.938 62.4375C100.771 60.2708 100.188 59.1875 99.1875 59.1875C98.6875 59.2292 98.3333 59.4583 98.125 59.875C97.9167 60.25 97.6875 60.7083 97.4375 61.25C96.8542 62.625 95.7917 63 94.25 62.375C93.7083 62.125 93.3542 61.7292 93.1875 61.1875C93.0625 60.6458 92.9792 60.0208 92.9375 59.3125C92.9375 58.5625 92.9167 57.7917 92.875 57C92.875 56.1667 92.7292 55.3958 92.4375 54.6875C92.1875 53.9375 91.9375 53.2292 91.6875 52.5625C91.4375 51.8958 91.3333 51.2292 91.375 50.5625C91.4167 49.8958 91.5625 49.25 91.8125 48.625C92.1042 48 92.1875 47.375 92.0625 46.75C91.9792 46.125 92.1042 45.5208 92.4375 44.9375C92.8125 44.3125 93.4583 44.0417 94.375 44.125ZM124.688 90.75C124.271 90.875 123.792 90.8333 123.25 90.625C122.75 90.4583 122.396 90.125 122.188 89.625C121.979 89.0833 121.833 88.4792 121.75 87.8125C121.708 87.1042 121.708 86.3542 121.75 85.5625C121.792 84.7708 121.812 84 121.812 83.25C121.812 81.5833 121.542 80.5208 121 80.0625C119.875 79.2292 119.417 77.1042 119.625 73.6875C119.833 71.7292 120.062 70.1667 120.312 69C120.729 67.0833 120.917 65.4583 120.875 64.125C120.875 62.7917 120.917 61.75 121 61C121.125 60.25 121.25 59.625 121.375 59.125C121.542 58.625 121.729 58.1042 121.938 57.5625C122.146 57.0208 122.333 56.125 122.5 54.875C122.917 51.75 123.292 49.8125 123.625 49.0625C124.083 48.0208 124.625 46.9583 125.25 45.875C125.917 44.75 126.458 44 126.875 43.625C127.833 42.9167 129.208 42.8542 131 43.4375C132.333 43.8958 133.562 44.0417 134.688 43.875C135.854 43.7083 136.729 43.6458 137.312 43.6875C137.938 43.6875 138.625 43.9167 139.375 44.375C140.125 44.7917 140.708 45.3125 141.125 45.9375C141.542 46.5208 141.833 47.1667 142 47.875C142.292 49.0833 142.312 50.625 142.062 52.5C141.812 54.3333 141.708 55.8333 141.75 57C141.833 58.125 142.083 59.2083 142.5 60.25C142.958 61.25 143.25 62.0625 143.375 62.6875C143.542 63.2708 143.667 63.875 143.75 64.5C143.875 65.0833 143.958 65.7292 144 66.4375C144.083 67.1042 144.208 67.875 144.375 68.75C144.583 69.625 144.688 70.3333 144.688 70.875C144.729 71.375 144.729 71.7917 144.688 72.125C144.646 72.4583 144.583 72.7708 144.5 73.0625C144.458 73.3125 144.479 73.7292 144.562 74.3125C144.688 74.8542 144.688 75.4583 144.562 76.125C144.479 76.7917 144.375 77.4375 144.25 78.0625C143.792 79.9792 143.604 81.3333 143.688 82.125C143.854 83.5417 143.854 84.5625 143.688 85.1875C143.521 85.7708 143.354 86.25 143.188 86.625C143.062 87 142.896 87.5208 142.688 88.1875C142.521 88.8542 142.146 89.4583 141.562 90C140.979 90.5417 140.417 90.7083 139.875 90.5C139.375 90.2917 139.042 90 138.875 89.625C138.75 89.2083 138.625 88.7917 138.5 88.375C138.417 87.9583 138.292 87.5833 138.125 87.25C138 86.9167 137.75 86.7292 137.375 86.6875C136.708 86.6042 136.354 86.2292 136.312 85.5625C136.271 84.8542 136.271 84.25 136.312 83.75C136.396 83.2083 136.375 82.6667 136.25 82.125C136.125 81.5833 135.917 81.0625 135.625 80.5625C134.875 79.2708 134 78.5625 133 78.4375C131.5 78.2292 130.458 78.9583 129.875 80.625C129.75 81.0417 129.646 81.6042 129.562 82.3125C129.521 82.9792 129.354 83.5833 129.062 84.125C128.812 84.6667 128.521 85.125 128.188 85.5C127.896 85.875 127.604 86.2292 127.312 86.5625C127.062 86.8542 126.896 87.2292 126.812 87.6875C126.479 89.4792 125.771 90.5 124.688 90.75ZM130.25 64.5625C129.417 66.8125 129.312 68.6042 129.938 69.9375C130.354 70.6875 130.896 71.0833 131.562 71.125C132.771 71.25 133.479 71.1667 133.688 70.875C133.938 70.5417 134.208 70.2083 134.5 69.875C134.833 69.5 134.958 68.9583 134.875 68.25C134.792 67.5 134.729 66.8542 134.688 66.3125C134.646 65.7292 134.438 65.0833 134.062 64.375C133.729 63.6667 133.5 62.9167 133.375 62.125C133.25 61.2917 133.167 60.5 133.125 59.75C132.958 58.0833 132.583 57.25 132 57.25C131.583 57.25 131.312 57.4792 131.188 57.9375C131.104 58.3542 131.042 58.9167 131 59.625C130.958 61.7917 130.708 63.4375 130.25 64.5625ZM182.938 45.875C184.146 45.9583 185.229 46.5833 186.188 47.75C186.354 48 186.521 48.25 186.688 48.5C186.854 48.7083 186.979 48.9583 187.062 49.25C187.312 49.875 187.396 50.7708 187.312 51.9375C187.229 53.1042 187.292 54.0625 187.5 54.8125C187.708 55.5208 187.917 56.2083 188.125 56.875C188.5 58.0417 188.271 59.6042 187.438 61.5625C186.812 63.3542 186.042 64.4167 185.125 64.75L184 65.125C182.917 65.5 181.979 65.6458 181.188 65.5625C180.438 65.4375 179.917 65.2083 179.625 64.875C178.792 63.7917 178.583 62.5417 179 61.125C179.083 60.8333 179.083 60.375 179 59.75C178.917 59.125 178.562 58.7292 177.938 58.5625C177.604 58.4792 177.375 58.3333 177.25 58.125C177.167 57.9167 177.083 57.75 177 57.625C176.958 57.4583 176.896 57.3542 176.812 57.3125C176.771 57.2292 176.583 57.3125 176.25 57.5625C175.917 57.8125 175.729 57.9583 175.688 58C175.646 58 175.5 57.9583 175.25 57.875C175.042 57.7917 174.833 57.8125 174.625 57.9375C174.417 58.0625 174.208 58.2917 174 58.625C173.25 59.9167 173.104 62.0208 173.562 64.9375C173.729 65.8125 173.896 66.625 174.062 67.375C174.396 69.25 174.542 70.5 174.5 71.125C174.5 71.75 174.375 72.4167 174.125 73.125C173.917 73.7917 173.729 74.4583 173.562 75.125C173.062 76.8333 173.125 78.2917 173.75 79.5C174.5 81 174.979 81.875 175.188 82.125C175.562 82.5 176.021 82.6667 176.562 82.625C177.104 82.5417 177.521 82.2708 177.812 81.8125C178.104 81.3125 178.375 80.7917 178.625 80.25C178.875 79.6667 179.146 79.125 179.438 78.625C179.729 78.125 180.062 77.8333 180.438 77.75C180.854 77.6667 181.375 77.6667 182 77.75C182.625 77.7917 183.042 77.8125 183.25 77.8125C183.5 77.8125 183.792 77.9583 184.125 78.25C184.458 78.5 184.625 79.1042 184.625 80.0625C184.667 80.9792 184.708 81.7292 184.75 82.3125C184.792 82.8542 184.646 83.3542 184.312 83.8125C183.979 84.2292 183.75 84.625 183.625 85C183.542 85.3333 183.479 85.6667 183.438 86C183.396 86.875 183.229 87.5208 182.938 87.9375C182.688 88.3542 182.438 88.7083 182.188 89C181.979 89.25 181.375 89.375 180.375 89.375C179.417 89.375 178.542 89.8333 177.75 90.75C176.958 91.6667 176.208 92.0625 175.5 91.9375C174.792 91.8542 174.292 91.4375 174 90.6875C173.708 90.0208 173.062 89.6667 172.062 89.625C171.771 89.5833 171.5 89.5208 171.25 89.4375C171 89.3125 170.708 89.2292 170.375 89.1875C170.042 89.1042 169.708 88.9583 169.375 88.75C168.542 88.2917 167.854 87.5625 167.312 86.5625C166.979 85.9375 166.646 85.4167 166.312 85C166.021 84.5833 165.771 84.1875 165.562 83.8125C165.021 82.9792 164.812 82.1875 164.938 81.4375C165.188 79.4375 164.917 78.125 164.125 77.5C163.667 77.2083 163.438 76.9792 163.438 76.8125C163.438 76.6458 163.354 76.2917 163.188 75.75C162.938 75 162.938 74.125 163.188 73.125C163.479 72.125 163.583 71.3125 163.5 70.6875C163.417 70.0208 163.312 69.3333 163.188 68.625C162.938 66.7917 162.917 65.5833 163.125 65C163.333 64.4167 163.375 63.5833 163.25 62.5C163.167 61.4167 163.125 60.5417 163.125 59.875C163.125 59.1667 163.062 58.25 162.938 57.125C162.854 56 162.854 54.7917 162.938 53.5C163.229 50.25 164.333 48.0208 166.25 46.8125C169.125 45.1042 170.958 44.2917 171.75 44.375C172 44.375 172.292 44.4167 172.625 44.5C173 44.5417 173.354 44.5208 173.688 44.4375C174.021 44.3542 174.312 44.2292 174.562 44.0625C174.812 43.8958 175.062 43.7083 175.312 43.5C176.312 42.5833 177.208 42.4792 178 43.1875C178.75 44.0625 179.333 44.6458 179.75 44.9375C180.458 45.4792 181.521 45.7917 182.938 45.875ZM196.375 46.875C196.833 46.4583 197.229 46.0208 197.562 45.5625C197.896 45.0625 198.333 44.6042 198.875 44.1875C200.333 42.9792 201.792 42.625 203.25 43.125C205.042 43.7917 206.688 44.2083 208.188 44.375C209.688 44.5417 210.771 44.9167 211.438 45.5C212.146 46.0833 212.75 46.7083 213.25 47.375C214.458 48.9583 215.188 50.6875 215.438 52.5625C215.479 53.2708 215.604 53.7708 215.812 54.0625C216.354 54.9792 216.521 56.2083 216.312 57.75C216.146 59.2917 216.083 60.375 216.125 61C216.208 61.5833 216.312 62.0208 216.438 62.3125C216.604 62.6042 216.75 62.8958 216.875 63.1875C217.208 63.9792 217.375 64.7708 217.375 65.5625C217.375 66.5625 217.042 67.5625 216.375 68.5625C216.083 68.9375 215.979 69.6667 216.062 70.75C216.146 71.8333 216.208 72.9167 216.25 74C216.292 76.7083 216.146 78.3958 215.812 79.0625C215.479 79.6875 215.229 80.0625 215.062 80.1875C214.938 80.3125 214.812 80.4167 214.688 80.5C214.062 80.7917 213.5 81.6667 213 83.125C212.542 84.5417 211.917 85.7083 211.125 86.625C210.333 87.5 209.5 88.2292 208.625 88.8125C207.792 89.3542 207.125 89.7708 206.625 90.0625C206.167 90.3958 205.833 90.7083 205.625 91C205.417 91.2917 205.208 91.5833 205 91.875C204.458 92.5417 203.771 92.875 202.938 92.875C201.521 92.875 200.479 92.5417 199.812 91.875C199.521 91.5 199.208 90.9583 198.875 90.25C198.25 89.125 197.417 88.2083 196.375 87.5C195.208 86.7083 194.5 85.5208 194.25 83.9375C194.125 83.3958 194.083 82.8542 194.125 82.3125C194.208 81.7708 194.188 81.0833 194.062 80.25C193.979 79.4167 193.812 78.6667 193.562 78C193.312 77.3333 193.167 76.7083 193.125 76.125C192.917 74.375 192.333 73.4375 191.375 73.3125C190.667 73.2292 190.25 72.1667 190.125 70.125C190.083 69.0833 190.125 68.1042 190.25 67.1875C190.375 66.2292 190.542 65.4167 190.75 64.75C191.083 63.5417 191.188 62.1458 191.062 60.5625C190.938 58.9375 190.938 57.5 191.062 56.25C191.271 53.9167 191.771 52.0208 192.562 50.5625C192.938 49.9375 193.479 49.3125 194.188 48.6875C194.938 48.0625 195.667 47.4583 196.375 46.875ZM200.312 64.75C200.438 65.3333 200.646 65.8125 200.938 66.1875C201.271 66.5208 201.5 67.0625 201.625 67.8125C201.792 68.5625 201.854 69.3958 201.812 70.3125C201.771 71.1875 201.75 72.0417 201.75 72.875C201.75 73.6667 201.792 74.3958 201.875 75.0625C201.958 75.6875 202.083 76.2708 202.25 76.8125C202.708 78.1042 203.354 78.75 204.188 78.75C205.479 78.75 206.375 76.25 206.875 71.25C207.042 69.875 207.125 68.125 207.125 66C207.125 63.8333 206.792 61.9792 206.125 60.4375C205.458 58.8542 204.646 58.0625 203.688 58.0625C202.771 58.0625 201.938 59.0833 201.188 61.125C200.521 62.9583 200.229 64.1667 200.312 64.75ZM250.562 89.5625C249.188 89.5625 248.562 88.3958 248.688 86.0625C248.771 84.4792 248.771 83.0833 248.688 81.875C248.646 80.6667 248.396 79.3958 247.938 78.0625C247.479 76.7292 247.167 75.5208 247 74.4375C246.833 73.3542 246.958 72.1667 247.375 70.875C247.958 69.0417 248 67 247.5 64.75C247.417 64.375 247.375 64 247.375 63.625C247.375 63.2083 247.354 62.8333 247.312 62.5C247.271 61.7083 247.062 61.3125 246.688 61.3125C246.354 61.3125 246.125 61.6042 246 62.1875C245.75 63.6875 245.458 64.8542 245.125 65.6875C244.208 67.8542 243.854 69.6458 244.062 71.0625C244.604 73.1458 244.562 74.75 243.938 75.875C243.646 76.4167 243.292 76.8125 242.875 77.0625C242.458 77.3125 242.188 77.5417 242.062 77.75C241.938 77.9167 241.875 78.25 241.875 78.75C241.917 79.2083 241.812 79.5833 241.562 79.875C241.312 80.1667 241.146 80.4792 241.062 80.8125C241.021 81.1458 240.958 81.4583 240.875 81.75C240.667 82.5 240.208 82.8333 239.5 82.75C238.792 82.6667 238.292 82.2292 238 81.4375C237.75 80.6458 237.542 79.7292 237.375 78.6875C237.25 77.6458 237.104 76.6042 236.938 75.5625C236.812 74.5208 236.542 73.7292 236.125 73.1875C235.75 72.6458 235.479 72.1042 235.312 71.5625C235.188 71.0208 235.083 70.4583 235 69.875C234.792 68.4583 234.521 67.4792 234.188 66.9375C233.896 66.4375 233.667 65.5 233.5 64.125C233.333 62.75 233.167 61.8125 233 61.3125C232.875 60.8125 232.625 60.5625 232.25 60.5625C231.833 60.6042 231.604 60.9167 231.562 61.5C231.521 62.0833 231.583 62.5625 231.75 62.9375C231.917 63.3125 231.938 63.9792 231.812 64.9375C231.688 65.8958 231.708 66.7292 231.875 67.4375C232.042 68.1458 232.208 68.7917 232.375 69.375C232.542 69.9167 232.688 70.5 232.812 71.125C233.229 72.8333 233.312 74.2917 233.062 75.5C232.854 76.6667 232.729 77.5833 232.688 78.25C232.646 78.875 232.375 79.3333 231.875 79.625C231.417 79.9167 231.125 80.2292 231 80.5625C230.917 80.8542 230.854 81.2083 230.812 81.625C230.771 82 230.729 82.4167 230.688 82.875C230.646 83.2917 230.5 83.8125 230.25 84.4375C229.708 85.7708 229.521 86.75 229.688 87.375C229.896 88 229.792 88.6667 229.375 89.375C229 90.0833 228.438 90.4583 227.688 90.5C226.979 90.5833 226.396 90.4583 225.938 90.125C225.521 89.7917 225.146 89.375 224.812 88.875C223.438 86.625 222.896 84.0833 223.188 81.25C223.229 80.625 223.271 80 223.312 79.375C223.396 78.75 223.396 77.9792 223.312 77.0625C223.188 74.8125 222.667 73.0417 221.75 71.75C221.125 70.875 220.771 69.8125 220.688 68.5625C220.479 66.3958 220.604 64.8542 221.062 63.9375C221.271 63.5208 221.375 62.875 221.375 62C221.375 61.0833 221.354 60.4375 221.312 60.0625C221.312 59.6458 221.333 59.3542 221.375 59.1875C221.458 58.9792 221.5 58.6458 221.5 58.1875C221.542 57.6875 221.562 57.125 221.562 56.5C221.521 55.375 221.375 54.3542 221.125 53.4375C220.875 52.4792 220.708 51.6667 220.625 51C220.583 50.2917 220.604 49.6042 220.688 48.9375C220.812 47.4375 221.062 46.375 221.438 45.75C221.854 45.125 222.229 44.7708 222.562 44.6875C222.896 44.5625 223.271 44.5 223.688 44.5C224.104 44.5 224.458 44.4375 224.75 44.3125C225.042 44.1458 225.354 44 225.688 43.875C226.396 43.5833 227.083 43.5625 227.75 43.8125C228.417 44.0625 228.979 44.1458 229.438 44.0625C229.938 43.9792 230.396 43.875 230.812 43.75C231.896 43.3333 232.708 43.2292 233.25 43.4375C233.833 43.6458 234.354 44 234.812 44.5C235.271 45 235.521 45.4167 235.562 45.75C235.646 46.0417 235.75 46.25 235.875 46.375C236 46.5 236.146 46.625 236.312 46.75C236.646 47.0417 236.812 47.5 236.812 48.125C236.812 49.0417 237.062 50.2708 237.562 51.8125C238.438 54.7292 239.271 56.3125 240.062 56.5625C240.229 56.6042 240.521 56.4792 240.938 56.1875C241.354 55.8958 241.646 55.4583 241.812 54.875C242.062 53.875 242.146 53.125 242.062 52.625C241.979 52.0833 242.042 51.6667 242.25 51.375C242.5 51.0833 242.625 50.8125 242.625 50.5625C242.667 50.3125 242.708 49.9792 242.75 49.5625C242.792 49.1458 242.875 48.6667 243 48.125C243.333 46.75 243.812 45.7083 244.438 45C245.062 44.2917 245.708 43.875 246.375 43.75C247.042 43.625 247.708 43.6042 248.375 43.6875C249.083 43.7292 249.771 43.7917 250.438 43.875C251.146 43.9167 251.854 43.7917 252.562 43.5C254.438 42.6667 255.729 42.6458 256.438 43.4375C256.646 43.6458 256.833 43.7917 257 43.875C257.208 43.9583 257.396 44.0417 257.562 44.125C257.896 44.375 258.083 44.7708 258.125 45.3125C258.208 45.8125 258.292 46.1667 258.375 46.375C258.458 46.5417 258.542 46.7083 258.625 46.875C259.083 47.9583 259.375 49.8333 259.5 52.5C259.625 56.875 259.542 59.375 259.25 60C259.542 61.7083 259.396 62.9167 258.812 63.625C258.688 63.75 258.562 63.875 258.438 64C257.688 64.75 257.229 65.75 257.062 67C256.979 67.5 256.979 67.9167 257.062 68.25C257.188 68.5833 257.25 68.9375 257.25 69.3125C257.25 69.6875 257.229 70.0208 257.188 70.3125C257.188 70.6042 257.188 70.9167 257.188 71.25C257.104 72.4583 257.083 73.3333 257.125 73.875C257.208 74.4167 257.208 74.8125 257.125 75.0625C257.083 75.3125 257.021 75.5417 256.938 75.75C256.729 76.375 256.667 76.9167 256.75 77.375C256.833 77.7917 256.833 78.125 256.75 78.375C256.667 78.625 256.562 78.875 256.438 79.125C256.104 79.8333 255.958 80.75 256 81.875C256.083 82.9583 256.042 83.875 255.875 84.625C255.75 85.375 255.688 86.1458 255.688 86.9375C255.604 89.1458 255.312 90.1667 254.812 90C254.604 89.9167 254.417 90.0208 254.25 90.3125C254.125 90.6042 254 90.9792 253.875 91.4375C253.792 91.8958 253.521 92.0417 253.062 91.875C252.604 91.75 252.292 91.4167 252.125 90.875C252 90.3333 251.812 89.9792 251.562 89.8125C251.354 89.6458 251.021 89.5625 250.562 89.5625ZM277.875 55.4375C276.458 55.8125 276.188 58.2292 277.062 62.6875C277.354 63.8958 277.5 64.9167 277.5 65.75C277.542 66.5417 277.438 67.4167 277.188 68.375C276.938 69.3333 276.812 70.1042 276.812 70.6875C276.812 71.2708 276.729 71.9583 276.562 72.75C276.604 73.625 276.583 74.5208 276.5 75.4375C276.458 76.3125 276.417 77.1667 276.375 78C276.25 80.0417 276.229 81.25 276.312 81.625C276.396 82 276.521 82.25 276.688 82.375C276.896 82.4583 277.125 82.5417 277.375 82.625C277.958 82.8333 278.312 83.1042 278.438 83.4375C278.562 83.7708 278.604 84.25 278.562 84.875C278.562 85.4583 278.5 86.0833 278.375 86.75C278 88.3333 277.479 89.3542 276.812 89.8125C276.438 90.0625 276.042 90.1458 275.625 90.0625C275.25 89.9792 274.833 89.8958 274.375 89.8125C272.958 89.5625 271.75 89.6875 270.75 90.1875C268.292 91.5208 266.396 91.5208 265.062 90.1875C264.521 89.6458 264.188 88.8125 264.062 87.6875C263.896 85.6458 264 84.3333 264.375 83.75C264.792 83.1667 265.125 82.8125 265.375 82.6875C265.667 82.5208 265.917 82.375 266.125 82.25C266.583 82.0417 266.812 81.6875 266.812 81.1875C266.812 80.8125 266.854 80.4167 266.938 80C267.062 79.5417 267.167 79.0625 267.25 78.5625C267.458 77.3542 267.354 76.3542 266.938 75.5625C266.479 74.6458 266.271 73.8958 266.312 73.3125C266.396 72.7292 266.458 72.2083 266.5 71.75L266.75 70.25C266.833 69.0417 266.812 68.0208 266.688 67.1875C266.562 66.3125 266.458 65.4167 266.375 64.5C266.333 63.5417 266.312 62.6458 266.312 61.8125C266.354 60.9792 266.375 60.1875 266.375 59.4375C266.375 57.6875 266.188 56.6458 265.812 56.3125C265.479 55.9792 265.167 55.8125 264.875 55.8125C264.583 55.7708 264.292 55.75 264 55.75C263.208 55.8333 262.708 55.7083 262.5 55.375C262.042 54.9167 261.812 54.3333 261.812 53.625C261.812 52.9167 261.938 52.375 262.188 52C262.479 51.625 262.667 51.2083 262.75 50.75C262.833 50.25 262.875 49.7292 262.875 49.1875C262.958 47.9375 262.917 47.125 262.75 46.75C262.583 46.3333 262.458 45.9792 262.375 45.6875C262.333 45.3542 262.312 45.0417 262.312 44.75C262.312 43.5417 263.167 42.9167 264.875 42.875C265.917 42.8333 266.979 42.8542 268.062 42.9375C269.146 42.9792 270 42.9375 270.625 42.8125C272.792 42.3958 274.521 42.2292 275.812 42.3125C277.146 42.3958 278 42.5 278.375 42.625C279.417 43.0417 279.979 44.1875 280.062 46.0625C280.104 46.9375 280.125 47.8542 280.125 48.8125C280.125 49.7708 280.167 50.75 280.25 51.75C280.417 53.8333 279.625 55.0625 277.875 55.4375ZM308.188 52.4375C308.312 52.8542 308.354 53.3542 308.312 53.9375C308.312 54.4792 308.167 55.2708 307.875 56.3125C307.583 57.3125 307.479 58.2292 307.562 59.0625C307.688 59.8542 307.812 60.3958 307.938 60.6875C308.062 60.9375 308.146 61.25 308.188 61.625C308.271 62 308.271 62.3958 308.188 62.8125C307.979 63.7708 307.375 64.5208 306.375 65.0625C305.417 65.4792 304.583 65.9375 303.875 66.4375C303.208 66.8958 302.5 67.25 301.75 67.5C301.583 68 301.417 68.4583 301.25 68.875C301.125 69.2917 300.896 69.625 300.562 69.875C300.229 70.0833 299.854 70.125 299.438 70C299.021 69.8333 298.854 69.3958 298.938 68.6875C299.021 67.9375 298.896 67.4375 298.562 67.1875C298.271 66.8958 298.021 66.6667 297.812 66.5C297.646 66.3333 297.479 66.1667 297.312 66C297.146 65.8333 297.021 65.625 296.938 65.375C296.729 64.625 296.771 63.9583 297.062 63.375C297.396 62.7917 297.562 62.3542 297.562 62.0625C297.604 61.7708 297.604 61.4583 297.562 61.125C297.438 60.2917 297.417 59.5833 297.5 59C297.625 58.4167 297.479 57.9167 297.062 57.5C296.688 57.0833 296.25 56.8958 295.75 56.9375C295.292 56.9792 294.896 57.625 294.562 58.875C294.271 60.125 294.042 61.6875 293.875 63.5625C293.708 65.3958 293.604 67.3958 293.562 69.5625C293.562 71.7292 293.667 73.75 293.875 75.625C294.292 79.9167 295.042 82.1042 296.125 82.1875C297.208 82.2708 298.042 82.125 298.625 81.75C299.208 81.3333 299.667 80.875 300 80.375C300.333 79.875 300.583 79.4167 300.75 79C300.958 78.5417 301.188 78.2708 301.438 78.1875C303.188 77.6042 304.417 77.9583 305.125 79.25C305.417 79.7917 305.562 80.5625 305.562 81.5625C305.562 82.5625 305.479 83.3125 305.312 83.8125C305.188 84.2708 305.021 84.6667 304.812 85C304.646 85.2917 304.479 85.5625 304.312 85.8125C304.146 86.0625 304.021 86.3958 303.938 86.8125C303.854 87.1875 303.667 87.5417 303.375 87.875C303.083 88.2083 302.729 88.5 302.312 88.75C301.438 89.2083 300.708 89.4375 300.125 89.4375C297.833 89.4375 296.125 89.8542 295 90.6875C294.292 91.2708 293.583 91.5417 292.875 91.5C291.833 91.4583 291.125 91.25 290.75 90.875C290.375 90.5 289.875 90.125 289.25 89.75C288.625 89.375 288.25 88.9167 288.125 88.375C288.042 87.7917 287.854 87.3333 287.562 87C287.271 86.6667 286.958 86.25 286.625 85.75C285.75 84.625 285.312 83.2917 285.312 81.75C285.312 80.7917 285.333 80 285.375 79.375C285.417 78.75 285.417 78.2083 285.375 77.75C285.375 76.875 285 75.9792 284.25 75.0625C283.5 74.1042 283.062 73.2917 282.938 72.625C282.812 71.9167 282.688 71.2708 282.562 70.6875C282.479 70.0625 282.479 69.4583 282.562 68.875C282.646 68.2917 282.729 67.6875 282.812 67.0625C282.896 66.4375 283.042 65.8958 283.25 65.4375C283.5 64.9792 283.583 64.5208 283.5 64.0625C283.458 63.6042 283.5 63.2292 283.625 62.9375C283.792 62.6458 283.938 62.3333 284.062 62C284.396 61.0833 284.354 60.1875 283.938 59.3125C283.521 58.3958 283.292 57.6667 283.25 57.125C283.25 56.5833 283.312 56.1042 283.438 55.6875C283.562 55.2292 283.688 54.8125 283.812 54.4375C283.979 54.0208 284.062 53.5 284.062 52.875C284.062 52.25 284.167 51.5208 284.375 50.6875C284.625 49.8542 285.208 49.3333 286.125 49.125C287.083 48.875 287.625 48.5417 287.75 48.125C287.875 47.7083 288.021 47.2708 288.188 46.8125C288.312 46.3542 288.708 45.8542 289.375 45.3125C290.042 44.7292 291 44.3542 292.25 44.1875C293.542 43.9792 294.458 43.9583 295 44.125C295.583 44.2917 296.104 44.6458 296.562 45.1875C297.021 45.6875 297.458 45.9792 297.875 46.0625C298.292 46.1042 298.729 46.0833 299.188 46C301.354 45.7083 303.521 46.1667 305.688 47.375C306.438 47.7917 306.938 48.4375 307.188 49.3125C307.438 50.1875 307.646 50.8125 307.812 51.1875C307.979 51.5625 308.104 51.9792 308.188 52.4375ZM334.312 53.5625C334.438 53.8125 334.479 54.0833 334.438 54.375C334.396 54.6667 334.104 55.1667 333.562 55.875C333.021 56.5833 332.688 57.3542 332.562 58.1875C332.479 58.9792 332.458 59.6458 332.5 60.1875C332.542 60.6875 332.542 61.125 332.5 61.5C332.458 62.4167 331.958 63.0417 331 63.375C330.167 63.7083 329.521 63.6875 329.062 63.3125C328.604 62.9375 328.229 62.4583 327.938 61.875C327.646 61.25 327.417 60.7292 327.25 60.3125C327.125 59.8542 326.896 59.6042 326.562 59.5625C325.979 59.4375 325.521 59.5 325.188 59.75C324.896 60 324.667 60.2083 324.5 60.375C324.167 60.7083 323.812 60.9375 323.438 61.0625C323.104 61.1875 322.833 61.3125 322.625 61.4375C322.208 61.7292 322.042 62.2083 322.125 62.875C322.292 64.1667 323.729 66.125 326.438 68.75C326.938 69.25 327.521 69.7917 328.188 70.375C328.896 70.9583 329.583 71.625 330.25 72.375C331.75 74.1667 332.583 76.1875 332.75 78.4375C332.917 80.7292 332.583 82.7292 331.75 84.4375C331.083 85.8125 330.292 86.7083 329.375 87.125C328.667 87.5 328.188 88 327.938 88.625C327.688 89.2083 327.5 89.6458 327.375 89.9375C327.25 90.1875 326.979 90.3958 326.562 90.5625C326.188 90.7708 325.75 90.8542 325.25 90.8125C324.75 90.7708 324.271 90.6667 323.812 90.5C323.396 90.375 323 90.2083 322.625 90C322.292 89.8333 322 89.7292 321.75 89.6875C321.542 89.6458 321.333 89.7292 321.125 89.9375C320.917 90.1042 320.708 90.2917 320.5 90.5C319.875 91.125 319.312 91.3542 318.812 91.1875C318.312 91.0625 317.729 90.8333 317.062 90.5C316.396 90.1667 315.75 89.75 315.125 89.25C312.875 87.5 312.104 85.7083 312.812 83.875C313.271 82.6667 313.771 81.8125 314.312 81.3125C314.896 80.8125 315.354 80.5625 315.688 80.5625C316.229 80.5625 316.583 80.7708 316.75 81.1875C316.958 81.5625 317.125 81.8958 317.25 82.1875C317.375 82.4375 317.521 82.6458 317.688 82.8125C317.854 82.9792 318.104 83.1458 318.438 83.3125C318.812 83.4792 319.208 83.5833 319.625 83.625C320.667 83.7083 321.458 83.2917 322 82.375C322.542 81.4583 322.75 80.4583 322.625 79.375C322.333 77.4167 321.917 76.5833 321.375 76.875C320.917 77.1667 320.354 77.1875 319.688 76.9375C319.021 76.6458 318.667 76.2917 318.625 75.875C318.583 75.4167 318.5 74.9792 318.375 74.5625C318.25 74.1458 318.104 73.75 317.938 73.375C317.562 72.4167 317.229 71.8958 316.938 71.8125C316.604 71.7292 316.146 71.6875 315.562 71.6875C315.021 71.6875 314.417 71.3333 313.75 70.625C313.083 69.875 312.604 68.9583 312.312 67.875C312.021 66.75 311.771 65.7917 311.562 65C311.354 64.1667 311.167 63.5208 311 63.0625C310.833 62.6042 310.688 62.125 310.562 61.625C310.146 60.0417 310.125 58 310.5 55.5C310.75 54.0417 311.208 52.7708 311.875 51.6875C312.542 50.5625 313.292 49.4583 314.125 48.375C315.708 46.25 317.167 44.7708 318.5 43.9375C319.833 43.1042 320.854 43.0208 321.562 43.6875C322.188 44.2292 322.854 44.4583 323.562 44.375C324.312 44.25 324.896 44.125 325.312 44L326.438 43.75C327.146 43.5833 327.854 43.6042 328.562 43.8125C329.312 44.0208 329.979 44.7292 330.562 45.9375C330.854 46.5625 331.146 47.1042 331.438 47.5625C331.771 48.0208 332.083 48.4583 332.375 48.875C333 49.875 333.354 50.7083 333.438 51.375C333.562 52 333.708 52.4583 333.875 52.75C334.083 53.0417 334.229 53.3125 334.312 53.5625Z" fill="white"/>
<defs>
<filter id="filter0_d_41_14" x="0" y="0" width="374" height="148" filterUnits="userSpaceOnUse" color-interpolation-filters="sRGB">
<feFlood flood-opacity="0" result="BackgroundImageFix"/>
<feColorMatrix in="SourceAlpha" type="matrix" values="0 0 0 0 0 0 0 0 0 0 0 0 0 0 0 0 0 0 127 0" result="hardAlpha"/>
<feOffset dy="4"/>
<feGaussianBlur stdDeviation="2"/>
<feComposite in2="hardAlpha" operator="out"/>
<feColorMatrix type="matrix" values="0 0 0 0 0 0 0 0 0 0 0 0 0 0 0 0 0 0 0.25 0"/>
<feBlend mode="normal" in2="BackgroundImageFix" result="effect1_dropShadow_41_14"/>
<feBlend mode="normal" in="SourceGraphic" in2="effect1_dropShadow_41_14" result="shape"/>
</filter>
</defs>
</svg>
